<svg id="Layer_1" data-name="Layer 1" xmlns="http://www.w3.org/2000/svg" xmlns:xlink="http://www.w3.org/1999/xlink" viewBox="0 0 512 512"><defs><style>.cls-1{fill:url(#linear-gradient);}.cls-2{fill:url(#linear-gradient-2);}</style><linearGradient id="linear-gradient" x1="1405.29" y1="540.2" x2="1675.58" y2="67.81" gradientTransform="matrix(-1, 0, 0, 1, 1765.65, 0)" gradientUnits="userSpaceOnUse"><stop offset="0" stop-color="#732ad8"/><stop offset="1" stop-color="#d290ff"/></linearGradient><linearGradient id="linear-gradient-2" x1="1265.35" y1="375.37" x2="1753.94" y2="375.37" gradientTransform="matrix(-1, 0, 0, 1, 1765.65, 0)" gradientUnits="userSpaceOnUse"><stop offset="0" stop-color="#d290ff"/><stop offset="1" stop-color="#732ad8"/></linearGradient></defs><path class="cls-1" d="M95.07,249.49,197.19,69.88l3.15-5.54c26.19-46.07,92.36-46.75,119.48-1.22L326.9,75,450.81,283c9.68,30.77,9.69,63.74,12.47,74.88,1.27,5.92-22.21,4.63-27.81,11.58-4.46,5.53-12.49,5.88-20,5.88-12,0-5.81,11.19-35.66,0L288.71,223.51a26.9,26.9,0,0,0-46.51.49l-18.57,32.65c-28.39-9.5-55-14.28-79.46-14.28A165.77,165.77,0,0,0,95.07,249.49ZM128,377.3a93.88,93.88,0,0,1,25,3.64l-25.8,45.37H57.59C70.61,403.41,93.09,377.3,128,377.3Z"/><path class="cls-2" d="M12,395.62a172.59,172.59,0,0,1,2.22-21c1.22-6.75,14.22-58.1,59.16-86.94,29.77-19.15,73.58-28.39,137.29-8.21a388.74,388.74,0,0,1,59.15,24.72C306,322.6,335,334,358.28,340.3c111.21,30,92-56.92,91.47-59.06v0l0,.1.16.27c.1.16.25.38.41.67s.27.49.45.78c4.25,7.32,20.76,36.37,40.52,79.1a100.28,100.28,0,0,1,6.34,64.18c-7.62,31.87-32,58-74.49,56.23-70.45-2.83-180.08-80.08-180.08-80.08-29-23.09-54.62-37.11-77.1-44.44C86.62,332.18,45.84,389.73,28.59,426.31a175.76,175.76,0,0,0-10.42,27.26,136.11,136.11,0,0,1-5.48-27.26A204.55,204.55,0,0,1,12,395.62Z"/></svg>